<?xml version="1.0" encoding="utf-8"?>
<svg xmlns="http://www.w3.org/2000/svg" xmlns:xlink="http://www.w3.org/1999/xlink" width="600" height="400" viewBox="0 0 2400 1600">
<defs>
  <clipPath id="clip910">
    <rect x="0" y="0" width="2400" height="1600"/>
  </clipPath>
</defs>
<path clip-path="url(#clip910)" d="M0 1600 L2400 1600 L2400 0 L0 0  Z" fill="#ffffff" fill-rule="evenodd" fill-opacity="1"/>
<defs>
  <clipPath id="clip911">
    <rect x="480" y="0" width="1681" height="1600"/>
  </clipPath>
</defs>
<path clip-path="url(#clip910)" d="M272.297 1423.18 L2352.76 1423.18 L2352.76 47.2441 L272.297 47.2441  Z" fill="#ffffff" fill-rule="evenodd" fill-opacity="1"/>
<defs>
  <clipPath id="clip912">
    <rect x="272" y="47" width="2081" height="1377"/>
  </clipPath>
</defs>
<polyline clip-path="url(#clip912)" style="stroke:#000000; stroke-linecap:round; stroke-linejoin:round; stroke-width:2; stroke-opacity:0.1; fill:none" points="311.352,1423.18 311.352,47.2441 "/>
<polyline clip-path="url(#clip912)" style="stroke:#000000; stroke-linecap:round; stroke-linejoin:round; stroke-width:2; stroke-opacity:0.1; fill:none" points="806.983,1423.18 806.983,47.2441 "/>
<polyline clip-path="url(#clip912)" style="stroke:#000000; stroke-linecap:round; stroke-linejoin:round; stroke-width:2; stroke-opacity:0.1; fill:none" points="1302.61,1423.18 1302.61,47.2441 "/>
<polyline clip-path="url(#clip912)" style="stroke:#000000; stroke-linecap:round; stroke-linejoin:round; stroke-width:2; stroke-opacity:0.1; fill:none" points="1798.24,1423.18 1798.24,47.2441 "/>
<polyline clip-path="url(#clip912)" style="stroke:#000000; stroke-linecap:round; stroke-linejoin:round; stroke-width:2; stroke-opacity:0.1; fill:none" points="2293.87,1423.18 2293.87,47.2441 "/>
<polyline clip-path="url(#clip910)" style="stroke:#000000; stroke-linecap:round; stroke-linejoin:round; stroke-width:4; stroke-opacity:1; fill:none" points="272.297,1423.18 2352.76,1423.18 "/>
<polyline clip-path="url(#clip910)" style="stroke:#000000; stroke-linecap:round; stroke-linejoin:round; stroke-width:4; stroke-opacity:1; fill:none" points="311.352,1423.18 311.352,1404.28 "/>
<polyline clip-path="url(#clip910)" style="stroke:#000000; stroke-linecap:round; stroke-linejoin:round; stroke-width:4; stroke-opacity:1; fill:none" points="806.983,1423.18 806.983,1404.28 "/>
<polyline clip-path="url(#clip910)" style="stroke:#000000; stroke-linecap:round; stroke-linejoin:round; stroke-width:4; stroke-opacity:1; fill:none" points="1302.61,1423.18 1302.61,1404.28 "/>
<polyline clip-path="url(#clip910)" style="stroke:#000000; stroke-linecap:round; stroke-linejoin:round; stroke-width:4; stroke-opacity:1; fill:none" points="1798.24,1423.18 1798.24,1404.28 "/>
<polyline clip-path="url(#clip910)" style="stroke:#000000; stroke-linecap:round; stroke-linejoin:round; stroke-width:4; stroke-opacity:1; fill:none" points="2293.87,1423.18 2293.87,1404.28 "/>
<path clip-path="url(#clip910)" d="M311.352 1454.1 Q307.741 1454.1 305.912 1457.66 Q304.107 1461.2 304.107 1468.33 Q304.107 1475.44 305.912 1479.01 Q307.741 1482.55 311.352 1482.55 Q314.986 1482.55 316.792 1479.01 Q318.621 1475.44 318.621 1468.33 Q318.621 1461.2 316.792 1457.66 Q314.986 1454.1 311.352 1454.1 M311.352 1450.39 Q317.162 1450.39 320.218 1455 Q323.297 1459.58 323.297 1468.33 Q323.297 1477.06 320.218 1481.67 Q317.162 1486.25 311.352 1486.25 Q305.542 1486.25 302.463 1481.67 Q299.408 1477.06 299.408 1468.33 Q299.408 1459.58 302.463 1455 Q305.542 1450.39 311.352 1450.39 Z" fill="#000000" fill-rule="nonzero" fill-opacity="1" /><path clip-path="url(#clip910)" d="M786.254 1481.64 L802.573 1481.64 L802.573 1485.58 L780.629 1485.58 L780.629 1481.64 Q783.291 1478.89 787.874 1474.26 Q792.481 1469.61 793.661 1468.27 Q795.907 1465.74 796.786 1464.01 Q797.689 1462.25 797.689 1460.56 Q797.689 1457.8 795.745 1456.07 Q793.823 1454.33 790.721 1454.33 Q788.522 1454.33 786.069 1455.09 Q783.638 1455.86 780.86 1457.41 L780.86 1452.69 Q783.684 1451.55 786.138 1450.97 Q788.592 1450.39 790.629 1450.39 Q795.999 1450.39 799.194 1453.08 Q802.388 1455.77 802.388 1460.26 Q802.388 1462.39 801.578 1464.31 Q800.791 1466.2 798.684 1468.8 Q798.106 1469.47 795.004 1472.69 Q791.902 1475.88 786.254 1481.64 Z" fill="#000000" fill-rule="nonzero" fill-opacity="1" /><path clip-path="url(#clip910)" d="M812.434 1451.02 L830.791 1451.02 L830.791 1454.96 L816.717 1454.96 L816.717 1463.43 Q817.735 1463.08 818.754 1462.92 Q819.772 1462.73 820.791 1462.73 Q826.578 1462.73 829.957 1465.9 Q833.337 1469.08 833.337 1474.49 Q833.337 1480.07 829.865 1483.17 Q826.393 1486.25 820.073 1486.25 Q817.897 1486.25 815.629 1485.88 Q813.383 1485.51 810.976 1484.77 L810.976 1480.07 Q813.059 1481.2 815.281 1481.76 Q817.504 1482.32 819.981 1482.32 Q823.985 1482.32 826.323 1480.21 Q828.661 1478.1 828.661 1474.49 Q828.661 1470.88 826.323 1468.77 Q823.985 1466.67 819.981 1466.67 Q818.106 1466.67 816.231 1467.08 Q814.379 1467.5 812.434 1468.38 L812.434 1451.02 Z" fill="#000000" fill-rule="nonzero" fill-opacity="1" /><path clip-path="url(#clip910)" d="M1277.31 1451.02 L1295.67 1451.02 L1295.67 1454.96 L1281.6 1454.96 L1281.6 1463.43 Q1282.61 1463.08 1283.63 1462.92 Q1284.65 1462.73 1285.67 1462.73 Q1291.46 1462.73 1294.84 1465.9 Q1298.22 1469.08 1298.22 1474.49 Q1298.22 1480.07 1294.74 1483.17 Q1291.27 1486.25 1284.95 1486.25 Q1282.78 1486.25 1280.51 1485.88 Q1278.26 1485.51 1275.85 1484.77 L1275.85 1480.07 Q1277.94 1481.2 1280.16 1481.76 Q1282.38 1482.32 1284.86 1482.32 Q1288.86 1482.32 1291.2 1480.21 Q1293.54 1478.1 1293.54 1474.49 Q1293.54 1470.88 1291.2 1468.77 Q1288.86 1466.67 1284.86 1466.67 Q1282.98 1466.67 1281.11 1467.08 Q1279.26 1467.5 1277.31 1468.38 L1277.31 1451.02 Z" fill="#000000" fill-rule="nonzero" fill-opacity="1" /><path clip-path="url(#clip910)" d="M1317.43 1454.1 Q1313.82 1454.1 1311.99 1457.66 Q1310.18 1461.2 1310.18 1468.33 Q1310.18 1475.44 1311.99 1479.01 Q1313.82 1482.55 1317.43 1482.55 Q1321.06 1482.55 1322.87 1479.01 Q1324.7 1475.44 1324.7 1468.33 Q1324.7 1461.2 1322.87 1457.66 Q1321.06 1454.1 1317.43 1454.1 M1317.43 1450.39 Q1323.24 1450.39 1326.29 1455 Q1329.37 1459.58 1329.37 1468.33 Q1329.37 1477.06 1326.29 1481.67 Q1323.24 1486.25 1317.43 1486.25 Q1311.62 1486.25 1308.54 1481.67 Q1305.48 1477.06 1305.48 1468.33 Q1305.48 1459.58 1308.54 1455 Q1311.62 1450.39 1317.43 1450.39 Z" fill="#000000" fill-rule="nonzero" fill-opacity="1" /><path clip-path="url(#clip910)" d="M1772.1 1451.02 L1794.32 1451.02 L1794.32 1453.01 L1781.77 1485.58 L1776.89 1485.58 L1788.7 1454.96 L1772.1 1454.96 L1772.1 1451.02 Z" fill="#000000" fill-rule="nonzero" fill-opacity="1" /><path clip-path="url(#clip910)" d="M1803.49 1451.02 L1821.84 1451.02 L1821.84 1454.96 L1807.77 1454.96 L1807.77 1463.43 Q1808.79 1463.08 1809.81 1462.92 Q1810.83 1462.73 1811.84 1462.73 Q1817.63 1462.73 1821.01 1465.9 Q1824.39 1469.08 1824.39 1474.49 Q1824.39 1480.07 1820.92 1483.17 Q1817.45 1486.25 1811.13 1486.25 Q1808.95 1486.25 1806.68 1485.88 Q1804.44 1485.51 1802.03 1484.77 L1802.03 1480.07 Q1804.11 1481.2 1806.33 1481.76 Q1808.56 1482.32 1811.03 1482.32 Q1815.04 1482.32 1817.38 1480.21 Q1819.71 1478.1 1819.71 1474.49 Q1819.71 1470.88 1817.38 1468.77 Q1815.04 1466.67 1811.03 1466.67 Q1809.16 1466.67 1807.28 1467.08 Q1805.43 1467.5 1803.49 1468.38 L1803.49 1451.02 Z" fill="#000000" fill-rule="nonzero" fill-opacity="1" /><path clip-path="url(#clip910)" d="M2253.48 1481.64 L2261.12 1481.64 L2261.12 1455.28 L2252.81 1456.95 L2252.81 1452.69 L2261.07 1451.02 L2265.75 1451.02 L2265.75 1481.64 L2273.39 1481.64 L2273.39 1485.58 L2253.48 1485.58 L2253.48 1481.64 Z" fill="#000000" fill-rule="nonzero" fill-opacity="1" /><path clip-path="url(#clip910)" d="M2292.83 1454.1 Q2289.22 1454.1 2287.39 1457.66 Q2285.59 1461.2 2285.59 1468.33 Q2285.59 1475.44 2287.39 1479.01 Q2289.22 1482.55 2292.83 1482.55 Q2296.47 1482.55 2298.27 1479.01 Q2300.1 1475.44 2300.1 1468.33 Q2300.1 1461.2 2298.27 1457.66 Q2296.47 1454.1 2292.83 1454.1 M2292.83 1450.39 Q2298.64 1450.39 2301.7 1455 Q2304.78 1459.58 2304.78 1468.33 Q2304.78 1477.06 2301.7 1481.67 Q2298.64 1486.25 2292.83 1486.25 Q2287.02 1486.25 2283.94 1481.67 Q2280.89 1477.06 2280.89 1468.33 Q2280.89 1459.58 2283.94 1455 Q2287.02 1450.39 2292.83 1450.39 Z" fill="#000000" fill-rule="nonzero" fill-opacity="1" /><path clip-path="url(#clip910)" d="M2323 1454.1 Q2319.38 1454.1 2317.56 1457.66 Q2315.75 1461.2 2315.75 1468.33 Q2315.75 1475.44 2317.56 1479.01 Q2319.38 1482.55 2323 1482.55 Q2326.63 1482.55 2328.43 1479.01 Q2330.26 1475.44 2330.26 1468.33 Q2330.26 1461.2 2328.43 1457.66 Q2326.63 1454.1 2323 1454.1 M2323 1450.39 Q2328.81 1450.39 2331.86 1455 Q2334.94 1459.58 2334.94 1468.33 Q2334.94 1477.06 2331.86 1481.67 Q2328.81 1486.25 2323 1486.25 Q2317.19 1486.25 2314.11 1481.67 Q2311.05 1477.06 2311.05 1468.33 Q2311.05 1459.58 2314.11 1455 Q2317.19 1450.39 2323 1450.39 Z" fill="#000000" fill-rule="nonzero" fill-opacity="1" /><path clip-path="url(#clip910)" d="M1107.12 1522.08 L1107.12 1528.35 Q1103.46 1526.6 1100.21 1525.74 Q1096.97 1524.88 1093.94 1524.88 Q1088.69 1524.88 1085.83 1526.92 Q1082.99 1528.96 1082.99 1532.71 Q1082.99 1535.87 1084.87 1537.49 Q1086.78 1539.08 1092.07 1540.07 L1095.95 1540.86 Q1103.14 1542.23 1106.55 1545.7 Q1109.99 1549.14 1109.99 1554.93 Q1109.99 1561.84 1105.34 1565.4 Q1100.72 1568.97 1091.78 1568.97 Q1088.41 1568.97 1084.59 1568.2 Q1080.8 1567.44 1076.72 1565.94 L1076.72 1559.32 Q1080.64 1561.52 1084.4 1562.63 Q1088.15 1563.75 1091.78 1563.75 Q1097.29 1563.75 1100.28 1561.58 Q1103.27 1559.42 1103.27 1555.41 Q1103.27 1551.91 1101.11 1549.93 Q1098.97 1547.96 1094.07 1546.97 L1090.16 1546.21 Q1082.96 1544.78 1079.75 1541.72 Q1076.53 1538.67 1076.53 1533.22 Q1076.53 1526.92 1080.96 1523.29 Q1085.41 1519.66 1093.21 1519.66 Q1096.55 1519.66 1100.02 1520.27 Q1103.49 1520.87 1107.12 1522.08 Z" fill="#000000" fill-rule="nonzero" fill-opacity="1" /><path clip-path="url(#clip910)" d="M1137.1 1526.86 L1128.38 1550.51 L1145.86 1550.51 L1137.1 1526.86 M1133.47 1520.52 L1140.76 1520.52 L1158.87 1568.04 L1152.19 1568.04 L1147.86 1555.85 L1126.44 1555.85 L1122.11 1568.04 L1115.33 1568.04 L1133.47 1520.52 Z" fill="#000000" fill-rule="nonzero" fill-opacity="1" /><path clip-path="url(#clip910)" d="M1165.81 1520.52 L1195.86 1520.52 L1195.86 1525.93 L1172.24 1525.93 L1172.24 1540 L1194.87 1540 L1194.87 1545.41 L1172.24 1545.41 L1172.24 1562.63 L1196.43 1562.63 L1196.43 1568.04 L1165.81 1568.04 L1165.81 1520.52 Z" fill="#000000" fill-rule="nonzero" fill-opacity="1" /><path clip-path="url(#clip910)" d="M1207 1520.52 L1216.58 1520.52 L1228.71 1552.86 L1240.9 1520.52 L1250.48 1520.52 L1250.48 1568.04 L1244.21 1568.04 L1244.21 1526.32 L1231.95 1558.91 L1225.49 1558.91 L1213.24 1526.32 L1213.24 1568.04 L1207 1568.04 L1207 1520.52 Z" fill="#000000" fill-rule="nonzero" fill-opacity="1" /><path clip-path="url(#clip910)" d="M1283.96 1520.52 L1290.39 1520.52 L1290.39 1568.04 L1283.96 1568.04 L1283.96 1520.52 Z" fill="#000000" fill-rule="nonzero" fill-opacity="1" /><path clip-path="url(#clip910)" d="M1308.72 1522.27 L1308.72 1532.4 L1320.79 1532.4 L1320.79 1536.95 L1308.72 1536.95 L1308.72 1556.3 Q1308.72 1560.66 1309.9 1561.9 Q1311.11 1563.14 1314.77 1563.14 L1320.79 1563.14 L1320.79 1568.04 L1314.77 1568.04 Q1307.99 1568.04 1305.41 1565.53 Q1302.83 1562.98 1302.83 1556.3 L1302.83 1536.95 L1298.54 1536.95 L1298.54 1532.4 L1302.83 1532.4 L1302.83 1522.27 L1308.72 1522.27 Z" fill="#000000" fill-rule="nonzero" fill-opacity="1" /><path clip-path="url(#clip910)" d="M1358.98 1548.76 L1358.98 1551.62 L1332.05 1551.62 Q1332.43 1557.67 1335.68 1560.85 Q1338.96 1564 1344.78 1564 Q1348.16 1564 1351.31 1563.17 Q1354.49 1562.35 1357.61 1560.69 L1357.61 1566.23 Q1354.46 1567.57 1351.15 1568.27 Q1347.84 1568.97 1344.43 1568.97 Q1335.9 1568.97 1330.91 1564 Q1325.94 1559.04 1325.94 1550.57 Q1325.94 1541.82 1330.65 1536.69 Q1335.4 1531.54 1343.42 1531.54 Q1350.61 1531.54 1354.78 1536.18 Q1358.98 1540.8 1358.98 1548.76 M1353.12 1547.04 Q1353.06 1542.23 1350.42 1539.37 Q1347.81 1536.5 1343.48 1536.5 Q1338.58 1536.5 1335.62 1539.27 Q1332.69 1542.04 1332.24 1547.07 L1353.12 1547.04 Z" fill="#000000" fill-rule="nonzero" fill-opacity="1" /><path clip-path="url(#clip910)" d="M1389.25 1537.87 Q1388.26 1537.3 1387.08 1537.04 Q1385.94 1536.76 1384.54 1536.76 Q1379.57 1536.76 1376.9 1540 Q1374.26 1543.22 1374.26 1549.27 L1374.26 1568.04 L1368.37 1568.04 L1368.37 1532.4 L1374.26 1532.4 L1374.26 1537.93 Q1376.1 1534.69 1379.06 1533.13 Q1382.02 1531.54 1386.26 1531.54 Q1386.86 1531.54 1387.59 1531.63 Q1388.33 1531.7 1389.22 1531.85 L1389.25 1537.87 Z" fill="#000000" fill-rule="nonzero" fill-opacity="1" /><path clip-path="url(#clip910)" d="M1411.59 1550.12 Q1404.49 1550.12 1401.76 1551.75 Q1399.02 1553.37 1399.02 1557.29 Q1399.02 1560.4 1401.06 1562.25 Q1403.13 1564.07 1406.66 1564.07 Q1411.53 1564.07 1414.46 1560.63 Q1417.42 1557.16 1417.42 1551.43 L1417.42 1550.12 L1411.59 1550.12 M1423.27 1547.71 L1423.27 1568.04 L1417.42 1568.04 L1417.42 1562.63 Q1415.41 1565.88 1412.42 1567.44 Q1409.43 1568.97 1405.1 1568.97 Q1399.63 1568.97 1396.38 1565.91 Q1393.16 1562.82 1393.16 1557.67 Q1393.16 1551.65 1397.17 1548.6 Q1401.22 1545.54 1409.21 1545.54 L1417.42 1545.54 L1417.42 1544.97 Q1417.42 1540.93 1414.74 1538.73 Q1412.1 1536.5 1407.3 1536.5 Q1404.24 1536.5 1401.34 1537.23 Q1398.45 1537.97 1395.77 1539.43 L1395.77 1534.02 Q1398.99 1532.78 1402.01 1532.17 Q1405.04 1531.54 1407.9 1531.54 Q1415.63 1531.54 1419.45 1535.55 Q1423.27 1539.56 1423.27 1547.71 Z" fill="#000000" fill-rule="nonzero" fill-opacity="1" /><path clip-path="url(#clip910)" d="M1441.13 1522.27 L1441.13 1532.4 L1453.19 1532.4 L1453.19 1536.95 L1441.13 1536.95 L1441.13 1556.3 Q1441.13 1560.66 1442.31 1561.9 Q1443.52 1563.14 1447.18 1563.14 L1453.19 1563.14 L1453.19 1568.04 L1447.18 1568.04 Q1440.4 1568.04 1437.82 1565.53 Q1435.24 1562.98 1435.24 1556.3 L1435.24 1536.95 L1430.94 1536.95 L1430.94 1532.4 L1435.24 1532.4 L1435.24 1522.27 L1441.13 1522.27 Z" fill="#000000" fill-rule="nonzero" fill-opacity="1" /><path clip-path="url(#clip910)" d="M1460.89 1532.4 L1466.75 1532.4 L1466.75 1568.04 L1460.89 1568.04 L1460.89 1532.4 M1460.89 1518.52 L1466.75 1518.52 L1466.75 1525.93 L1460.89 1525.93 L1460.89 1518.52 Z" fill="#000000" fill-rule="nonzero" fill-opacity="1" /><path clip-path="url(#clip910)" d="M1492.82 1536.5 Q1488.11 1536.5 1485.37 1540.19 Q1482.63 1543.85 1482.63 1550.25 Q1482.63 1556.65 1485.34 1560.34 Q1488.08 1564 1492.82 1564 Q1497.5 1564 1500.23 1560.31 Q1502.97 1556.62 1502.97 1550.25 Q1502.97 1543.92 1500.23 1540.23 Q1497.5 1536.5 1492.82 1536.5 M1492.82 1531.54 Q1500.46 1531.54 1504.82 1536.5 Q1509.18 1541.47 1509.18 1550.25 Q1509.18 1559 1504.82 1564 Q1500.46 1568.97 1492.82 1568.97 Q1485.15 1568.97 1480.79 1564 Q1476.46 1559 1476.46 1550.25 Q1476.46 1541.47 1480.79 1536.5 Q1485.15 1531.54 1492.82 1531.54 Z" fill="#000000" fill-rule="nonzero" fill-opacity="1" /><path clip-path="url(#clip910)" d="M1548.52 1546.53 L1548.52 1568.04 L1542.66 1568.04 L1542.66 1546.72 Q1542.66 1541.66 1540.69 1539.14 Q1538.72 1536.63 1534.77 1536.63 Q1530.03 1536.63 1527.29 1539.65 Q1524.55 1542.68 1524.55 1547.9 L1524.55 1568.04 L1518.66 1568.04 L1518.66 1532.4 L1524.55 1532.4 L1524.55 1537.93 Q1526.65 1534.72 1529.49 1533.13 Q1532.35 1531.54 1536.07 1531.54 Q1542.22 1531.54 1545.37 1535.36 Q1548.52 1539.14 1548.52 1546.53 Z" fill="#000000" fill-rule="nonzero" fill-opacity="1" /><polyline clip-path="url(#clip912)" style="stroke:#000000; stroke-linecap:round; stroke-linejoin:round; stroke-width:2; stroke-opacity:0.1; fill:none" points="272.297,1409.03 2352.76,1409.03 "/>
<polyline clip-path="url(#clip912)" style="stroke:#000000; stroke-linecap:round; stroke-linejoin:round; stroke-width:2; stroke-opacity:0.1; fill:none" points="272.297,1110.22 2352.76,1110.22 "/>
<polyline clip-path="url(#clip912)" style="stroke:#000000; stroke-linecap:round; stroke-linejoin:round; stroke-width:2; stroke-opacity:0.1; fill:none" points="272.297,811.408 2352.76,811.408 "/>
<polyline clip-path="url(#clip912)" style="stroke:#000000; stroke-linecap:round; stroke-linejoin:round; stroke-width:2; stroke-opacity:0.1; fill:none" points="272.297,512.599 2352.76,512.599 "/>
<polyline clip-path="url(#clip912)" style="stroke:#000000; stroke-linecap:round; stroke-linejoin:round; stroke-width:2; stroke-opacity:0.1; fill:none" points="272.297,213.789 2352.76,213.789 "/>
<polyline clip-path="url(#clip910)" style="stroke:#000000; stroke-linecap:round; stroke-linejoin:round; stroke-width:4; stroke-opacity:1; fill:none" points="272.297,1423.18 272.297,47.2441 "/>
<polyline clip-path="url(#clip910)" style="stroke:#000000; stroke-linecap:round; stroke-linejoin:round; stroke-width:4; stroke-opacity:1; fill:none" points="272.297,1409.03 291.194,1409.03 "/>
<polyline clip-path="url(#clip910)" style="stroke:#000000; stroke-linecap:round; stroke-linejoin:round; stroke-width:4; stroke-opacity:1; fill:none" points="272.297,1110.22 291.194,1110.22 "/>
<polyline clip-path="url(#clip910)" style="stroke:#000000; stroke-linecap:round; stroke-linejoin:round; stroke-width:4; stroke-opacity:1; fill:none" points="272.297,811.408 291.194,811.408 "/>
<polyline clip-path="url(#clip910)" style="stroke:#000000; stroke-linecap:round; stroke-linejoin:round; stroke-width:4; stroke-opacity:1; fill:none" points="272.297,512.599 291.194,512.599 "/>
<polyline clip-path="url(#clip910)" style="stroke:#000000; stroke-linecap:round; stroke-linejoin:round; stroke-width:4; stroke-opacity:1; fill:none" points="272.297,213.789 291.194,213.789 "/>
<path clip-path="url(#clip910)" d="M115.256 1409.48 L144.931 1409.48 L144.931 1413.41 L115.256 1413.41 L115.256 1409.48 Z" fill="#000000" fill-rule="nonzero" fill-opacity="1" /><path clip-path="url(#clip910)" d="M159.052 1422.37 L175.371 1422.37 L175.371 1426.31 L153.427 1426.31 L153.427 1422.37 Q156.089 1419.62 160.672 1414.99 Q165.278 1410.34 166.459 1408.99 Q168.704 1406.47 169.584 1404.73 Q170.487 1402.97 170.487 1401.28 Q170.487 1398.53 168.542 1396.79 Q166.621 1395.06 163.519 1395.06 Q161.32 1395.06 158.866 1395.82 Q156.436 1396.59 153.658 1398.14 L153.658 1393.41 Q156.482 1392.28 158.936 1391.7 Q161.39 1391.12 163.427 1391.12 Q168.797 1391.12 171.991 1393.81 Q175.186 1396.49 175.186 1400.98 Q175.186 1403.11 174.376 1405.03 Q173.589 1406.93 171.482 1409.53 Q170.903 1410.2 167.802 1413.41 Q164.7 1416.61 159.052 1422.37 Z" fill="#000000" fill-rule="nonzero" fill-opacity="1" /><path clip-path="url(#clip910)" d="M189.213 1422.37 L205.533 1422.37 L205.533 1426.31 L183.588 1426.31 L183.588 1422.37 Q186.251 1419.62 190.834 1414.99 Q195.44 1410.34 196.621 1408.99 Q198.866 1406.47 199.746 1404.73 Q200.649 1402.97 200.649 1401.28 Q200.649 1398.53 198.704 1396.79 Q196.783 1395.06 193.681 1395.06 Q191.482 1395.06 189.028 1395.82 Q186.598 1396.59 183.82 1398.14 L183.82 1393.41 Q186.644 1392.28 189.098 1391.7 Q191.551 1391.12 193.588 1391.12 Q198.959 1391.12 202.153 1393.81 Q205.348 1396.49 205.348 1400.98 Q205.348 1403.11 204.537 1405.03 Q203.75 1406.93 201.644 1409.53 Q201.065 1410.2 197.963 1413.41 Q194.862 1416.61 189.213 1422.37 Z" fill="#000000" fill-rule="nonzero" fill-opacity="1" /><path clip-path="url(#clip910)" d="M215.394 1391.75 L233.75 1391.75 L233.75 1395.68 L219.676 1395.68 L219.676 1404.15 Q220.695 1403.81 221.713 1403.65 Q222.732 1403.46 223.75 1403.46 Q229.537 1403.46 232.917 1406.63 Q236.297 1409.8 236.297 1415.22 Q236.297 1420.8 232.824 1423.9 Q229.352 1426.98 223.033 1426.98 Q220.857 1426.98 218.588 1426.61 Q216.343 1426.24 213.936 1425.5 L213.936 1420.8 Q216.019 1421.93 218.241 1422.49 Q220.463 1423.04 222.94 1423.04 Q226.945 1423.04 229.283 1420.94 Q231.621 1418.83 231.621 1415.22 Q231.621 1411.61 229.283 1409.5 Q226.945 1407.4 222.94 1407.4 Q221.065 1407.4 219.19 1407.81 Q217.338 1408.23 215.394 1409.11 L215.394 1391.75 Z" fill="#000000" fill-rule="nonzero" fill-opacity="1" /><path clip-path="url(#clip910)" d="M114.26 1110.67 L143.936 1110.67 L143.936 1114.6 L114.26 1114.6 L114.26 1110.67 Z" fill="#000000" fill-rule="nonzero" fill-opacity="1" /><path clip-path="url(#clip910)" d="M158.056 1123.56 L174.376 1123.56 L174.376 1127.5 L152.431 1127.5 L152.431 1123.56 Q155.093 1120.81 159.677 1116.18 Q164.283 1111.53 165.464 1110.18 Q167.709 1107.66 168.589 1105.92 Q169.491 1104.16 169.491 1102.47 Q169.491 1099.72 167.547 1097.98 Q165.626 1096.25 162.524 1096.25 Q160.325 1096.25 157.871 1097.01 Q155.44 1097.78 152.663 1099.33 L152.663 1094.6 Q155.487 1093.47 157.94 1092.89 Q160.394 1092.31 162.431 1092.31 Q167.802 1092.31 170.996 1095 Q174.19 1097.68 174.19 1102.17 Q174.19 1104.3 173.38 1106.22 Q172.593 1108.12 170.487 1110.72 Q169.908 1111.39 166.806 1114.6 Q163.704 1117.8 158.056 1123.56 Z" fill="#000000" fill-rule="nonzero" fill-opacity="1" /><path clip-path="url(#clip910)" d="M194.19 1096.02 Q190.579 1096.02 188.75 1099.58 Q186.945 1103.12 186.945 1110.25 Q186.945 1117.36 188.75 1120.92 Q190.579 1124.47 194.19 1124.47 Q197.825 1124.47 199.63 1120.92 Q201.459 1117.36 201.459 1110.25 Q201.459 1103.12 199.63 1099.58 Q197.825 1096.02 194.19 1096.02 M194.19 1092.31 Q200 1092.31 203.056 1096.92 Q206.135 1101.5 206.135 1110.25 Q206.135 1118.98 203.056 1123.59 Q200 1128.17 194.19 1128.17 Q188.38 1128.17 185.301 1123.59 Q182.246 1118.98 182.246 1110.25 Q182.246 1101.5 185.301 1096.92 Q188.38 1092.31 194.19 1092.31 Z" fill="#000000" fill-rule="nonzero" fill-opacity="1" /><path clip-path="url(#clip910)" d="M224.352 1096.02 Q220.741 1096.02 218.912 1099.58 Q217.107 1103.12 217.107 1110.25 Q217.107 1117.36 218.912 1120.92 Q220.741 1124.47 224.352 1124.47 Q227.986 1124.47 229.792 1120.92 Q231.621 1117.36 231.621 1110.25 Q231.621 1103.12 229.792 1099.58 Q227.986 1096.02 224.352 1096.02 M224.352 1092.31 Q230.162 1092.31 233.218 1096.92 Q236.297 1101.5 236.297 1110.25 Q236.297 1118.98 233.218 1123.59 Q230.162 1128.17 224.352 1128.17 Q218.542 1128.17 215.463 1123.59 Q212.408 1118.98 212.408 1110.25 Q212.408 1101.5 215.463 1096.92 Q218.542 1092.31 224.352 1092.31 Z" fill="#000000" fill-rule="nonzero" fill-opacity="1" /><path clip-path="url(#clip910)" d="M115.256 811.86 L144.931 811.86 L144.931 815.795 L115.256 815.795 L115.256 811.86 Z" fill="#000000" fill-rule="nonzero" fill-opacity="1" /><path clip-path="url(#clip910)" d="M155.834 824.753 L163.473 824.753 L163.473 798.388 L155.163 800.054 L155.163 795.795 L163.427 794.128 L168.102 794.128 L168.102 824.753 L175.741 824.753 L175.741 828.688 L155.834 828.688 L155.834 824.753 Z" fill="#000000" fill-rule="nonzero" fill-opacity="1" /><path clip-path="url(#clip910)" d="M184.005 794.128 L206.227 794.128 L206.227 796.119 L193.681 828.688 L188.797 828.688 L200.602 798.064 L184.005 798.064 L184.005 794.128 Z" fill="#000000" fill-rule="nonzero" fill-opacity="1" /><path clip-path="url(#clip910)" d="M215.394 794.128 L233.75 794.128 L233.75 798.064 L219.676 798.064 L219.676 806.536 Q220.695 806.189 221.713 806.026 Q222.732 805.841 223.75 805.841 Q229.537 805.841 232.917 809.013 Q236.297 812.184 236.297 817.601 Q236.297 823.179 232.824 826.281 Q229.352 829.36 223.033 829.36 Q220.857 829.36 218.588 828.989 Q216.343 828.619 213.936 827.878 L213.936 823.179 Q216.019 824.313 218.241 824.869 Q220.463 825.425 222.94 825.425 Q226.945 825.425 229.283 823.318 Q231.621 821.212 231.621 817.601 Q231.621 813.989 229.283 811.883 Q226.945 809.776 222.94 809.776 Q221.065 809.776 219.19 810.193 Q217.338 810.61 215.394 811.489 L215.394 794.128 Z" fill="#000000" fill-rule="nonzero" fill-opacity="1" /><path clip-path="url(#clip910)" d="M114.26 513.05 L143.936 513.05 L143.936 516.985 L114.26 516.985 L114.26 513.05 Z" fill="#000000" fill-rule="nonzero" fill-opacity="1" /><path clip-path="url(#clip910)" d="M154.839 525.944 L162.477 525.944 L162.477 499.578 L154.167 501.245 L154.167 496.986 L162.431 495.319 L167.107 495.319 L167.107 525.944 L174.746 525.944 L174.746 529.879 L154.839 529.879 L154.839 525.944 Z" fill="#000000" fill-rule="nonzero" fill-opacity="1" /><path clip-path="url(#clip910)" d="M184.237 495.319 L202.593 495.319 L202.593 499.254 L188.519 499.254 L188.519 507.726 Q189.538 507.379 190.556 507.217 Q191.575 507.032 192.593 507.032 Q198.38 507.032 201.76 510.203 Q205.139 513.374 205.139 518.791 Q205.139 524.37 201.667 527.472 Q198.195 530.55 191.875 530.55 Q189.7 530.55 187.431 530.18 Q185.186 529.809 182.778 529.069 L182.778 524.37 Q184.862 525.504 187.084 526.059 Q189.306 526.615 191.783 526.615 Q195.787 526.615 198.125 524.509 Q200.463 522.402 200.463 518.791 Q200.463 515.18 198.125 513.073 Q195.787 510.967 191.783 510.967 Q189.908 510.967 188.033 511.384 Q186.181 511.8 184.237 512.68 L184.237 495.319 Z" fill="#000000" fill-rule="nonzero" fill-opacity="1" /><path clip-path="url(#clip910)" d="M224.352 498.398 Q220.741 498.398 218.912 501.962 Q217.107 505.504 217.107 512.634 Q217.107 519.74 218.912 523.305 Q220.741 526.847 224.352 526.847 Q227.986 526.847 229.792 523.305 Q231.621 519.74 231.621 512.634 Q231.621 505.504 229.792 501.962 Q227.986 498.398 224.352 498.398 M224.352 494.694 Q230.162 494.694 233.218 499.3 Q236.297 503.884 236.297 512.634 Q236.297 521.36 233.218 525.967 Q230.162 530.55 224.352 530.55 Q218.542 530.55 215.463 525.967 Q212.408 521.36 212.408 512.634 Q212.408 503.884 215.463 499.3 Q218.542 494.694 224.352 494.694 Z" fill="#000000" fill-rule="nonzero" fill-opacity="1" /><path clip-path="url(#clip910)" d="M115.256 214.241 L144.931 214.241 L144.931 218.176 L115.256 218.176 L115.256 214.241 Z" fill="#000000" fill-rule="nonzero" fill-opacity="1" /><path clip-path="url(#clip910)" d="M155.834 227.134 L163.473 227.134 L163.473 200.769 L155.163 202.435 L155.163 198.176 L163.427 196.509 L168.102 196.509 L168.102 227.134 L175.741 227.134 L175.741 231.069 L155.834 231.069 L155.834 227.134 Z" fill="#000000" fill-rule="nonzero" fill-opacity="1" /><path clip-path="url(#clip910)" d="M189.213 227.134 L205.533 227.134 L205.533 231.069 L183.588 231.069 L183.588 227.134 Q186.251 224.38 190.834 219.75 Q195.44 215.097 196.621 213.755 Q198.866 211.232 199.746 209.495 Q200.649 207.736 200.649 206.046 Q200.649 203.292 198.704 201.556 Q196.783 199.82 193.681 199.82 Q191.482 199.82 189.028 200.583 Q186.598 201.347 183.82 202.898 L183.82 198.176 Q186.644 197.042 189.098 196.463 Q191.551 195.884 193.588 195.884 Q198.959 195.884 202.153 198.57 Q205.348 201.255 205.348 205.745 Q205.348 207.875 204.537 209.796 Q203.75 211.694 201.644 214.287 Q201.065 214.958 197.963 218.176 Q194.862 221.37 189.213 227.134 Z" fill="#000000" fill-rule="nonzero" fill-opacity="1" /><path clip-path="url(#clip910)" d="M215.394 196.509 L233.75 196.509 L233.75 200.445 L219.676 200.445 L219.676 208.917 Q220.695 208.57 221.713 208.407 Q222.732 208.222 223.75 208.222 Q229.537 208.222 232.917 211.394 Q236.297 214.565 236.297 219.981 Q236.297 225.56 232.824 228.662 Q229.352 231.741 223.033 231.741 Q220.857 231.741 218.588 231.37 Q216.343 231 213.936 230.259 L213.936 225.56 Q216.019 226.694 218.241 227.25 Q220.463 227.806 222.94 227.806 Q226.945 227.806 229.283 225.699 Q231.621 223.593 231.621 219.981 Q231.621 216.37 229.283 214.264 Q226.945 212.157 222.94 212.157 Q221.065 212.157 219.19 212.574 Q217.338 212.991 215.394 213.87 L215.394 196.509 Z" fill="#000000" fill-rule="nonzero" fill-opacity="1" /><path clip-path="url(#clip910)" d="M16.4842 871.852 L16.4842 865.422 L58.5933 865.422 L58.5933 842.283 L64.0042 842.283 L64.0042 871.852 L16.4842 871.852 Z" fill="#000000" fill-rule="nonzero" fill-opacity="1" /><path clip-path="url(#clip910)" d="M32.4621 823.122 Q32.4621 827.833 36.1542 830.57 Q39.8145 833.308 46.212 833.308 Q52.6095 833.308 56.3017 830.602 Q59.9619 827.865 59.9619 823.122 Q59.9619 818.444 56.2698 815.706 Q52.5777 812.969 46.212 812.969 Q39.8781 812.969 36.186 815.706 Q32.4621 818.444 32.4621 823.122 M27.4968 823.122 Q27.4968 815.484 32.4621 811.123 Q37.4273 806.763 46.212 806.763 Q54.9649 806.763 59.9619 811.123 Q64.9272 815.484 64.9272 823.122 Q64.9272 830.793 59.9619 835.154 Q54.9649 839.482 46.212 839.482 Q37.4273 839.482 32.4621 835.154 Q27.4968 830.793 27.4968 823.122 Z" fill="#000000" fill-rule="nonzero" fill-opacity="1" /><path clip-path="url(#clip910)" d="M45.7664 773.597 Q39.4007 773.597 35.8996 776.239 Q32.3984 778.849 32.3984 783.591 Q32.3984 788.302 35.8996 790.944 Q39.4007 793.554 45.7664 793.554 Q52.1003 793.554 55.6014 790.944 Q59.1026 788.302 59.1026 783.591 Q59.1026 778.849 55.6014 776.239 Q52.1003 773.597 45.7664 773.597 M59.58 767.741 Q68.683 767.741 73.1071 771.783 Q77.5631 775.825 77.5631 784.164 Q77.5631 787.252 77.0857 789.989 Q76.6401 792.726 75.6852 795.304 L69.9879 795.304 Q71.3884 792.726 72.0568 790.212 Q72.7252 787.697 72.7252 785.087 Q72.7252 779.326 69.7015 776.462 Q66.7096 773.597 60.6303 773.597 L57.7339 773.597 Q60.885 775.411 62.4446 778.244 Q64.0042 781.077 64.0042 785.024 Q64.0042 791.58 59.0071 795.591 Q54.01 799.601 45.7664 799.601 Q37.491 799.601 32.4939 795.591 Q27.4968 791.58 27.4968 785.024 Q27.4968 781.077 29.0564 778.244 Q30.616 775.411 33.7671 773.597 L28.3562 773.597 L28.3562 767.741 L59.58 767.741 Z" fill="#000000" fill-rule="nonzero" fill-opacity="1" /><path clip-path="url(#clip910)" d="M16.4842 734.703 L16.4842 728.273 L60.694 728.273 Q69.2877 728.273 73.1708 731.552 Q77.0539 734.798 77.0539 742.023 L77.0539 744.474 L71.643 744.474 L71.643 742.469 Q71.643 738.204 69.2559 736.453 Q66.8687 734.703 60.694 734.703 L16.4842 734.703 Z" fill="#000000" fill-rule="nonzero" fill-opacity="1" /><path clip-path="url(#clip910)" d="M32.4621 701.919 Q32.4621 706.63 36.1542 709.367 Q39.8145 712.104 46.212 712.104 Q52.6095 712.104 56.3017 709.399 Q59.9619 706.662 59.9619 701.919 Q59.9619 697.241 56.2698 694.503 Q52.5777 691.766 46.212 691.766 Q39.8781 691.766 36.186 694.503 Q32.4621 697.241 32.4621 701.919 M27.4968 701.919 Q27.4968 694.28 32.4621 689.92 Q37.4273 685.559 46.212 685.559 Q54.9649 685.559 59.9619 689.92 Q64.9272 694.28 64.9272 701.919 Q64.9272 709.59 59.9619 713.951 Q54.9649 718.279 46.212 718.279 Q37.4273 718.279 32.4621 713.951 Q27.4968 709.59 27.4968 701.919 Z" fill="#000000" fill-rule="nonzero" fill-opacity="1" /><path clip-path="url(#clip910)" d="M28.3562 675.852 L28.3562 669.995 L64.0042 669.995 L64.0042 675.852 L28.3562 675.852 M14.479 675.852 L14.479 669.995 L21.895 669.995 L21.895 675.852 L14.479 675.852 Z" fill="#000000" fill-rule="nonzero" fill-opacity="1" /><path clip-path="url(#clip910)" d="M42.4881 628.109 L64.0042 628.109 L64.0042 633.965 L42.679 633.965 Q37.6183 633.965 35.1038 635.939 Q32.5894 637.912 32.5894 641.859 Q32.5894 646.601 35.6131 649.339 Q38.6368 652.076 43.8567 652.076 L64.0042 652.076 L64.0042 657.964 L28.3562 657.964 L28.3562 652.076 L33.8944 652.076 Q30.6797 649.975 29.0883 647.142 Q27.4968 644.278 27.4968 640.554 Q27.4968 634.411 31.3163 631.26 Q35.1038 628.109 42.4881 628.109 Z" fill="#000000" fill-rule="nonzero" fill-opacity="1" /><path clip-path="url(#clip910)" d="M18.2347 610.635 L28.3562 610.635 L28.3562 598.572 L32.9077 598.572 L32.9077 610.635 L52.2594 610.635 Q56.6199 610.635 57.8613 609.457 Q59.1026 608.248 59.1026 604.588 L59.1026 598.572 L64.0042 598.572 L64.0042 604.588 Q64.0042 611.367 61.4897 613.945 Q58.9434 616.523 52.2594 616.523 L32.9077 616.523 L32.9077 620.82 L28.3562 620.82 L28.3562 616.523 L18.2347 616.523 L18.2347 610.635 Z" fill="#000000" fill-rule="nonzero" fill-opacity="1" /><polyline clip-path="url(#clip912)" style="stroke:#009af9; stroke-linecap:round; stroke-linejoin:round; stroke-width:4; stroke-opacity:1; fill:none" points="331.177,1384.24 351.003,510.39 370.828,341.878 390.653,381.781 410.478,335.076 430.304,296.011 450.129,286.156 469.954,292.997 489.779,233.421 509.605,259.706 529.43,193.224 549.255,246.521 569.08,290.079 588.905,207.751 608.731,204.222 628.556,167.967 648.381,226.663 668.206,166.799 688.032,161.982 707.857,209.857 727.682,274.661 747.507,233.398 767.332,208.909 787.158,192.302 806.983,220.658 826.808,199.606 846.633,174.911 866.459,195.468 886.284,193.991 906.109,191.101 925.934,142.012 945.76,143.426 965.585,156.325 985.41,194.88 1005.24,143.521 1025.06,231.44 1044.89,340.183 1064.71,274.006 1084.54,150.55 1104.36,180.413 1124.19,180.438 1144.01,145.604 1163.84,151.648 1183.66,111.253 1203.49,207.469 1223.31,170.508 1243.14,171.967 1262.96,180.002 1282.79,118.337 1302.61,185.086 1322.44,166.89 1342.26,162.302 1362.09,178.586 1381.91,165.358 1401.74,156.877 1421.56,182.016 1441.39,163.48 1461.22,229.329 1481.04,240.66 1500.87,267.111 1520.69,225.387 1540.52,210.079 1560.34,341.238 1580.17,237.97 1599.99,259.1 1619.82,215.894 1639.64,194.596 1659.47,150.611 1679.29,189.657 1699.12,108.399 1718.94,86.1857 1738.77,105.774 1758.59,105.779 1778.42,143.563 1798.24,204.101 1818.07,199.314 1837.89,216.597 1857.72,140.599 1877.55,199.158 1897.37,182.118 1917.2,151.253 1937.02,243.843 1956.85,213.355 1976.67,132.903 1996.5,198.04 2016.32,164.116 2036.15,163.048 2055.97,234.469 2075.8,203.174 2095.62,232.852 2115.45,150.205 2135.27,165.095 2155.1,147.674 2174.92,245.576 2194.75,283.031 2214.57,308.841 2234.4,188.759 2254.22,193.475 2274.05,183.246 2293.87,203.437 "/>
<path clip-path="url(#clip910)" d="M2022.93 1377.32 L2283.41 1377.32 L2283.41 1273.64 L2022.93 1273.64  Z" fill="#ffffff" fill-rule="evenodd" fill-opacity="1"/>
<polyline clip-path="url(#clip910)" style="stroke:#000000; stroke-linecap:round; stroke-linejoin:round; stroke-width:4; stroke-opacity:1; fill:none" points="2022.93,1377.32 2283.41,1377.32 2283.41,1273.64 2022.93,1273.64 2022.93,1377.32 "/>
<polyline clip-path="url(#clip910)" style="stroke:#009af9; stroke-linecap:round; stroke-linejoin:round; stroke-width:4; stroke-opacity:1; fill:none" points="2046.05,1325.48 2184.74,1325.48 "/>
<path clip-path="url(#clip910)" d="M2221.7 1345.16 Q2219.9 1349.79 2218.18 1351.2 Q2216.47 1352.62 2213.6 1352.62 L2210.2 1352.62 L2210.2 1349.05 L2212.7 1349.05 Q2214.46 1349.05 2215.43 1348.22 Q2216.4 1347.38 2217.58 1344.28 L2218.35 1342.34 L2207.86 1316.83 L2212.37 1316.83 L2220.48 1337.11 L2228.58 1316.83 L2233.09 1316.83 L2221.7 1345.16 Z" fill="#000000" fill-rule="nonzero" fill-opacity="1" /><path clip-path="url(#clip910)" d="M2240.38 1338.82 L2248.02 1338.82 L2248.02 1312.45 L2239.71 1314.12 L2239.71 1309.86 L2247.98 1308.2 L2252.65 1308.2 L2252.65 1338.82 L2260.29 1338.82 L2260.29 1342.76 L2240.38 1342.76 L2240.38 1338.82 Z" fill="#000000" fill-rule="nonzero" fill-opacity="1" /></svg>
